<?xml version="1.0" encoding="UTF-8" standalone="no"?>
<svg
   class="svg-icon"
   style="width: 1em; height: 1em;vertical-align: middle;fill: currentColor;overflow: hidden;"
   viewBox="0 0 1024 1024"
   version="1.1"
   id="svg1"
   sodipodi:docname="shutdown-31.svg"
   inkscape:version="1.3 (0e150ed6c4, 2023-07-21)"
   xmlns:inkscape="http://www.inkscape.org/namespaces/inkscape"
   xmlns:sodipodi="http://sodipodi.sourceforge.net/DTD/sodipodi-0.dtd"
   xmlns="http://www.w3.org/2000/svg"
   xmlns:svg="http://www.w3.org/2000/svg">
  <defs
     id="defs1" />
  <sodipodi:namedview
     id="namedview1"
     pagecolor="#505050"
     bordercolor="#eeeeee"
     borderopacity="1"
     inkscape:showpageshadow="0"
     inkscape:pageopacity="0"
     inkscape:pagecheckerboard="0"
     inkscape:deskcolor="#505050"
     inkscape:zoom="0.38623047"
     inkscape:cx="42.720607"
     inkscape:cy="837.58281"
     inkscape:window-width="1920"
     inkscape:window-height="1020"
     inkscape:window-x="1920"
     inkscape:window-y="0"
     inkscape:window-maximized="1"
     inkscape:current-layer="svg1" />
  <path
     d="M746.089 221.476q39.902 28.374 70.936 64.286t53.202 77.587 33.695 88.226 11.527 94.433q0 82.463-31.478 154.729t-85.123 125.911-125.911 85.123-154.729 31.478q-81.577 0-153.842-31.478t-126.355-85.123-85.123-125.911-31.034-154.729q0-46.995 11.084-92.216t31.478-86.01 50.542-76.256 67.389-63.842q19.507-14.187 42.118-10.64t36.798 22.168 10.64 41.675-22.168 37.241q-55.863 40.789-85.567 100.197t-29.705 127.685q0 58.522 22.168 110.394t60.739 90.442 90.443 61.182 110.394 22.611 110.394-22.611 90.442-61.182 61.182-90.443 22.611-110.394q0-69.163-31.921-130.788t-89.558-101.527q-19.507-13.3-23.497-36.355t9.31-42.562q13.3-18.621 36.355-22.611t42.562 9.31zM518.207 548.668q-23.055 0-39.458-16.404t-16.404-39.458l0-336.945q0-23.055 16.404-39.902t39.458-16.847q23.941 0 40.344 16.847t16.404 39.902l0 336.945q0 23.055-16.404 39.458t-40.344 16.403z"
     id="path1"
     style="fill:#ffffff;fill-opacity:1" />
</svg>
